<?xml version="1.0" standalone="no"?>
<!DOCTYPE svg PUBLIC "-//W3C//DTD SVG 1.1//EN" "http://www.w3.org/Graphics/SVG/1.1/DTD/svg11.dtd" >
<svg xmlns="http://www.w3.org/2000/svg">
<metadata>
This is a custom SVG font generated by IcoMoon.</metadata>
<defs>
<font id="IcoMoon" horiz-adv-x="512" >
<font-face units-per-em="512" ascent="480" descent="-32" />
<missing-glyph horiz-adv-x="512" />
<glyph unicode="&#x3a;" d="M 484.117,109.12c-8.235,59.808-17.376,119.637-25.611,179.424c-0.32-0.064-0.16,9.696-0.469,9.643c0.00,3.712, 8.363,22.336, 9.899,22.336
	c 5.739,0.00, 11.509,0.00, 17.28,0.00C 471.125,401.205, 427.68,454.347, 354.805,480.00c0.00-10.336,0.00-20.64, 0.928-32.821c 33.813-26.581, 56.32-68.789, 67.573-126.645
	c 1.397,0.00, 2.432-4.384, 3.349-10.912c 2.72-19.541, 7.712-39.371, 9.056-59.008c 6.24-45.205, 12.427-90.432, 18.688-135.659
	c 4.245-30.752-2.923-59.435-38.272-59.435c-28.331,0.00-40.96,26.187-40.96,51.669c0.00,45.408,0.00,90.037,0.00,136.363c 2.251,23.808-19.541,45.088-42.336,45.397
	l-29.28,0.00 L 303.531,449.397 c0.00,15.104-12.341,27.445-27.413,27.445L 78.357,476.832 c-15.072,0.00-27.413-12.341-27.413-27.445l0.00-447.819 L 26.549,1.568 L 26.549-32.00 l 301.376,0.00 l0.00,33.568 l-24.384,0.00 L 303.531,256.277 
	l 18.336,0.00 c 18.421,0.00, 25.557-10.144, 25.557-27.392c0.00-45.301,0.00-92.117,0.00-138.005c0.00-1.493,0.00-2.976,0.00-4.469c0.00-20.384, 10.613-41.408, 33.60-54.443
	c 6.453-3.701, 20.00-6.923, 35.669-6.923C 471.125,25.024, 491.093,58.368, 484.117,109.12z M 271.328,287.36L 83.179,287.36 L 83.179,443.456 l 188.149,0.00 L 271.328,287.36 z" />
<glyph unicode="&#x28;" d="M 512.00,67.979L 348.128,227.029L 507.168,390.912L 413.664,481.664L 254.624,317.781L 90.752,476.832L0.00,383.328L 163.883,224.288L 4.832,60.395L 98.336-30.336L 257.376,133.547L 421.248-25.515 z" />
<glyph unicode="&#x27;" d="M 179.68,19.296L 512.00,351.584L 434.88,428.736L 179.68,173.568L 77.152,276.096L0.00,198.955 z" />
<glyph unicode="&#x2b;" d="M 496.395,58.805l-146.549,146.571c 38.155,70.528, 27.552,160.48-32.117,220.096c-72.672,72.704-190.517,72.704-263.232,0.00
			c-72.693-72.672-72.693-190.549,0.00-263.243c 59.627-59.669, 149.589-70.272, 220.149-32.075l 146.549-146.592c 20.779-20.736, 54.40-20.736, 75.179,0.00
			C 517.205,4.341, 517.205,37.952, 496.395,58.805z M 87.424,195.136c-54.517,54.517-54.517,142.891,0.00,197.451c 54.528,54.517, 142.891,54.517, 197.472,0.00
			c 54.496-54.56, 54.496-142.944,0.00-197.451C 230.325,140.565, 141.952,140.565, 87.424,195.136zM 92.117,312.288L 277.387,312.288L 277.387,276.416L 92.117,276.416z" />
<glyph unicode="&#x6b;" d="M 256.00-32.00c 141.376,0.00, 256.00,114.624, 256.00,256.00c0.00,141.387-114.624,256.00-256.00,256.00S0.00,365.387,0.00,224.00C0.00,82.624, 114.613-32.00, 256.00-32.00z M 353.323,33.387
		c-28.768-16.128-61.931-25.323-97.28-25.323c-35.051,0.00-68.00,9.056-96.608,24.96c-3.755,2.112-5.184,6.784-3.424,10.72
		c 9.803,21.781, 21.184,37.568, 36.821,52.16c 3.616,3.381, 8.256,5.504, 13.152,6.293c 33.568,5.408, 66.976,5.397, 100.565-0.064
		c 4.885-0.789, 9.376-3.115, 13.056-6.432c 19.712-17.792, 28.363-28.224, 37.376-51.008C 358.624,40.48, 357.259,35.616, 353.323,33.387z M 208.832,224.00
		c0.00,26.048, 21.12,47.157, 47.168,47.157c 26.048,0.00, 47.157-21.099, 47.157-47.157S 282.048,176.864, 256.00,176.864C 229.952,176.864, 208.832,197.952, 208.832,224.00z
		 M 455.20,220.341c 4.501-1.781, 7.445-6.176, 7.445-11.008c-0.16-32.437-9.931-62.592-26.56-87.84c-2.496-3.808-7.349-5.472-11.637-3.787
		c-14.624,5.728-27.968,15.168-37.536,26.933c-3.083,3.776-4.373,8.757-3.68,13.568c 2.891,19.776, 12.704,45.675, 23.637,62.379
		c 2.763,4.277, 7.307,7.243, 12.384,7.328C 429.579,228.085, 443.20,225.045, 455.20,220.341z M 83.584,297.792c 21.12,75.509, 90.40,130.912, 172.661,130.912
		c 84.928,0.00, 156.021-59.061, 174.571-138.336c 0.757-3.243-2.112-6.336-5.237-5.184C 310.816,327.029, 202.613,329.547, 88.64,292.704
		C 85.557,291.712, 82.699,294.667, 83.584,297.792z M 56.053,220.064c 12.171,4.864, 26.176,8.032, 36.715,7.84c 5.12-0.096, 9.643-3.147, 12.448-7.456
		c 10.816-16.587, 20.523-42.219, 23.467-61.888c 0.736-4.928-0.416-10.005-3.552-13.856c-9.536-11.744-22.859-21.216-37.483-26.955
		c-4.341-1.696-9.248-0.064-11.787,3.787c-16.619,25.248-26.368,55.403-26.528,87.84C 49.344,213.984, 51.808,218.347, 56.053,220.064zM 275.104,211.04c 0.651,0.491, 0.768,1.461, 0.224,2.08l-4.277,4.949l-9.771,11.275c-0.299,0.341-0.277,0.832, 0.032,1.131
		l 16.256,16.64c 0.587,0.587, 0.533,1.557-0.128,2.069l-19.317,15.36c-0.651,0.512-1.589,0.341-2.037-0.341l-17.525-27.328l-5.248-8.171
		c-0.448-0.725-0.256-1.664, 0.469-2.144l 6.08-4.00l 16.459-10.805c 0.352-0.256, 0.437-0.736, 0.192-1.056l-18.08-24.107
		c-0.384-0.512-0.352-1.248, 0.128-1.717c 0.48-0.48, 1.227-0.533, 1.749-0.128l 31.061,23.509L 275.104,211.04zM 256.00,224.00L 256.00,224.00L 256.00,224.00L 256.00,224.00L 256.00,224.00L 256.00,224.00L 256.00,224.00L 256.00,224.00L 256.00,224.00L 256.00,224.00L 256.00,224.00L 256.00,224.00L 256.00,224.00
	L 256.00,224.00L 256.00,224.00L 256.00,224.00L 256.00,224.00L 256.00,224.00L 256.00,224.00L 256.00,224.00L 256.00,224.00L 256.00,224.00L 256.00,224.00L 256.00,224.00L 256.00,224.00L 256.00,224.00L 256.00,224.00L 256.00,224.00L 256.00,224.00L 256.00,224.00L 256.00,224.00L 256.00,224.00L 256.00,224.00L 256.00,224.00
	L 256.00,224.00L 256.00,224.00z M 256.00,224.00L 256.00,224.00L 256.00,224.00L 256.00,224.00L 256.00,224.00L 256.00,224.00L 256.00,224.00L 256.00,224.00L 256.00,224.00L 256.00,224.00L 256.00,224.00L 256.00,224.00L 256.00,224.00L 256.00,224.00L 256.00,224.00L 256.00,224.00L 256.00,224.00L 256.00,224.00
	L 256.00,224.00L 256.00,224.00L 256.00,224.00L 256.00,224.00L 256.00,224.00L 256.00,224.00L 256.00,224.00L 256.00,224.00L 256.00,224.00L 256.00,224.00L 256.00,224.00L 256.00,224.00L 256.00,224.00L 256.00,224.00L 256.00,224.00L 256.00,224.00L 256.00,224.00L 256.00,224.00L 256.00,224.00L 256.00,224.00L 256.00,224.00
	L 256.00,224.00L 256.00,224.00L 256.00,224.00L 256.00,224.00L 256.00,224.00L 256.00,224.00L 256.00,224.00L 256.00,224.00L 256.00,224.00L 256.00,224.00L 256.00,224.00L 256.00,224.00L 256.00,224.00L 256.00,224.00L 256.00,224.00L 256.00,224.00L 256.00,224.00L 256.00,224.00L 256.00,224.00L 256.00,224.00L 256.00,224.00
	L 256.00,224.00L 256.00,224.00L 256.00,224.00L 256.00,224.00L 256.00,224.00L 256.00,224.00z" />
<glyph unicode="&#x32;" d="M 132.032,356.032A123.968,123.968 180.00 1,0 379.968,356.032A123.968,123.968 180.00 1,0 132.032,356.032zM 50.272-32.00c0.00,126.336, 56.597,227.243, 135.744,267.883L 256.00,145.376l 65.643,92.64c 81.408-38.848, 140.085-141.344, 140.085-270.005" />
<glyph unicode="&#x21;" d="M 255.979,445.696L 384.00,224.021L 512.00,2.325L 255.979,2.325L0.00,2.325L 127.979,224.021 z" />
<glyph unicode="&#x37;" d="M 511.072,171.584L 511.072,171.584c-116.715,0.00-233.451,0.00-350.176,0.00
	c0.00,65.301,0.00,130.592,0.00,195.883c 0.117,2.88, 1.557,5.867, 4.352,7.019c 5.504,2.272, 307.84,1.632, 338.037,0.768
	c 2.709-0.075, 5.408-0.971, 6.816-3.488C 513.184,366.229, 511.072,192.736, 511.072,171.584L 511.072,171.584z M 296.192,113.216
	c0.00,54.848, 83.584,54.795, 83.584,0.00S 296.192,58.368, 296.192,113.216L 296.192,113.216z M 316.661,112.341c0.00,27.189, 42.155,27.20, 42.155,0.00
	C 358.816,85.248, 316.661,85.248, 316.661,112.341L 316.661,112.341z M 21.963,113.664c0.00,54.837, 83.68,54.784, 83.68,0.00
	C 105.643,58.784, 21.963,58.752, 21.963,113.664L 21.963,113.664z M 42.656,112.853c0.00,27.072, 42.08,27.136, 42.08,0.00
	C 84.736,85.675, 42.656,85.739, 42.656,112.853L 42.656,112.853z M 385.963,113.099c0.00,54.795, 83.637,54.795, 83.637,0.00
	C 469.60,58.229, 385.963,58.229, 385.963,113.099L 385.963,113.099z M 406.549,112.192c0.00,27.168, 42.08,27.115, 42.08,0.00
	C 448.629,85.024, 406.549,84.992, 406.549,112.192L 406.549,112.192z M 403.659,160.352L 403.659,160.352c-8.363-5.237-15.083-11.392-20.331-19.797
	c-5.568,8.576-11.68,14.56-20.587,19.797C 376.352,160.352, 390.016,160.352, 403.659,160.352L 403.659,160.352z M 52.128,273.504l 18.40,67.819
	C 79.68,342.197, 121.771,343.136, 126.443,340.96c 4.587-2.144, 2.741-58.699, 1.899-67.435C 102.944,273.504, 77.536,273.504, 52.128,273.504L 52.128,273.504z
	 M 312.299,160.32L 312.299,160.32c-10.581-7.051-17.024-15.04-22.091-26.677c-59.328,0.00-118.656,0.00-177.984,0.00c-12.853,37.525-71.637,51.552-97.237-0.117
	c-4.544,0.00-10.133-0.544-13.163,3.648c-3.104,4.277-1.227,113.76-1.536,126.475c-0.224,9.568, 18.197,9.504, 43.008,9.419
	C 50.187,298.688, 57.109,324.32, 64.00,349.952c 10.357,0.00, 79.68,2.827, 83.84-2.133c 3.915-4.672, 1.685-167.84, 1.685-187.499
	C 203.776,160.32, 258.048,160.32, 312.299,160.32L 312.299,160.32z M 512.00,160.64L 512.00,160.64c-20.331,0.00-40.64,0.00-60.971,0.00
	c 11.904-4.896, 19.957-15.659, 25.419-26.901c 11.84,0.00, 23.701,0.00, 35.552,0.00L 512.00,160.64 L 512.00,160.64z" />
<glyph unicode="&#x2e;" d="M0.00,223.979C0.00,365.376, 114.613,479.936, 255.947,480.00l0.00,0.00C 397.376,479.947, 511.936,365.376, 512.00,223.979l0.00,0.00
			C 511.904,82.645, 397.376-31.968, 255.947-32.00l0.00,0.00C 114.613-31.968,0.00,82.645,0.00,223.979L0.00,223.979z M 47.072,223.979
			c 0.235-115.339, 93.568-208.672, 208.875-208.864l0.00,0.00c 115.403,0.192, 208.736,93.525, 208.896,208.864l0.00,0.00c-0.16,115.36-93.525,208.683-208.896,208.907
			l0.00,0.00C 140.661,432.672, 47.307,339.339, 47.072,223.979L 47.072,223.979zM 337.419,319.147l 12.352-13.60l-77.984-71.008c-1.664,1.376-3.456,2.464-5.515,3.20l-57.792,109.728l 26.859,14.261
			l-66.133,20.235l-20.235-66.155l 33.141,17.632l 59.232-112.48c-0.032-0.288-0.181-0.491-0.181-0.80c0.00-10.40, 8.469-18.88, 18.88-18.88
			c 9.856,0.00, 17.728,7.659, 18.549,17.344l 82.208,74.869l 13.067-14.368l 1.813,38.24L 337.419,319.147z M 260.373,213.088
			c-3.68,0.00-6.667,2.976-6.667,6.656c0.00,3.637, 2.976,6.603, 6.667,6.603c 3.637,0.00, 6.603-2.987, 6.603-6.603
			C 266.976,216.064, 264.00,213.088, 260.373,213.088zM 248.672,411.915L 267.584,411.915L 267.584,327.029L 248.672,327.029zM 63.68,230.464L 148.576,230.464L 148.576,211.531L 63.68,211.531zM 245.141,111.488L 264.064,111.488L 264.064,26.581L 245.141,26.581zM 364.128,226.923L 449.035,226.923L 449.035,208.053L 364.128,208.053z" />
<glyph unicode="&#x3b;" d="M 319.872,187.467L 319.872,425.589 C 319.872,455.584, 291.221,480.00, 256.021,480.00c-35.211,0.00-63.872-24.416-63.872-54.411l0.00-238.133 
		c-35.52-21.344-57.248-59.349-57.248-101.205c0.00-65.184, 53.056-118.261, 118.272-118.261l 5.696,0.00 c 65.216,0.00, 118.261,53.024, 118.261,118.261
		C 377.099,128.117, 355.413,166.112, 319.872,187.467z M 258.859,11.659l-5.696,0.00 c-41.141,0.00-74.592,33.472-74.592,74.592
		c0.00,28.32, 15.765,53.813, 41.141,66.592l 16.096,8.096L 235.808,425.589 c0.00,3.787, 7.659,10.752, 20.224,10.752s 20.224-6.976, 20.224-10.752l0.00-58.016 L 260.80,367.573 
		c-4.768,0.00-8.661-3.872-8.661-8.64s 3.872-8.661, 8.661-8.661l 15.445,0.00 l0.00-14.624 L 260.80,335.648 c-4.768,0.00-8.661-3.872-8.661-8.661
		c0.00-4.768, 3.872-8.64, 8.661-8.64l 15.445,0.00 l0.00-14.624 L 260.80,303.733 c-4.768,0.00-8.661-3.872-8.661-8.661c0.00-4.768, 3.872-8.64, 8.661-8.64l 15.445,0.00 l0.00-14.624 
		L 260.80,271.808 c-4.768,0.00-8.661-3.872-8.661-8.661c0.00-4.768, 3.872-8.661, 8.661-8.661l 15.445,0.00 l0.00-93.589 l 16.096-8.096
		c 25.376-12.80, 41.141-38.325, 41.141-66.592C 333.472,45.12, 300.021,11.659, 258.859,11.659zM 283.221,133.707l-19.189,9.664l0.00,80.533 c0.00,3.776-3.616,6.827-8.021,6.827c-4.416,0.00-8.021-3.051-8.021-6.827l0.00-80.565 l-19.189-9.664
		c-18.784-9.44-30.443-28.32-30.443-49.216c0.00-30.421, 24.736-55.168, 55.168-55.168l 4.96,0.00 c 30.432,0.00, 55.179,24.757, 55.179,55.168
		C 313.664,105.376, 302.005,124.288, 283.221,133.707z M 285.952,88.395c-0.373,2.795-1.163,5.547-2.315,8.171l 8.491,7.307
		c 1.44-2.24, 2.656-4.587, 3.573-7.104L 285.952,88.395z M 256.832,117.248c 8.128,3.051, 18.219,1.632, 26.037-3.787
		c 0.448-0.341, 0.885-0.672, 1.312-1.013l-6.976-5.963c-0.032,0.00-0.032,0.032-0.064,0.053C 272.149,111.68, 265.269,115.488, 256.832,117.248z
		 M 289.141,62.549c-6.261-7.083-15.659-11.04-24.331-10.005c 7.765,3.733, 13.483,9.131, 17.099,15.381c 2.592,4.448, 3.936,9.376, 4.224,14.304
		l 10.944,9.376c 0.139-0.725, 0.32-1.44, 0.373-2.176C 298.752,79.712, 295.552,69.632, 289.141,62.549zM 256.00,224.00L 256.00,224.00L 256.00,224.00L 256.00,224.00L 256.00,224.00L 256.00,224.00L 256.00,224.00L 256.00,224.00L 256.00,224.00L 256.00,224.00L 256.00,224.00L 256.00,224.00L 256.00,224.00L 256.00,224.00L 256.00,224.00L 256.00,224.00L 256.00,224.00L 256.00,224.00L 256.00,224.00
	L 256.00,224.00L 256.00,224.00L 256.00,224.00L 256.00,224.00L 256.00,224.00L 256.00,224.00L 256.00,224.00L 256.00,224.00L 256.00,224.00L 256.00,224.00L 256.00,224.00L 256.00,224.00L 256.00,224.00L 256.00,224.00L 256.00,224.00L 256.00,224.00L 256.00,224.00z M 256.00,224.00L 256.00,224.00L 256.00,224.00
	L 256.00,224.00L 256.00,224.00L 256.00,224.00L 256.00,224.00L 256.00,224.00L 256.00,224.00L 256.00,224.00L 256.00,224.00L 256.00,224.00L 256.00,224.00L 256.00,224.00L 256.00,224.00L 256.00,224.00L 256.00,224.00L 256.00,224.00L 256.00,224.00L 256.00,224.00L 256.00,224.00L 256.00,224.00L 256.00,224.00L 256.00,224.00
	L 256.00,224.00L 256.00,224.00L 256.00,224.00L 256.00,224.00L 256.00,224.00L 256.00,224.00L 256.00,224.00L 256.00,224.00L 256.00,224.00L 256.00,224.00L 256.00,224.00L 256.00,224.00L 256.00,224.00L 256.00,224.00L 256.00,224.00L 256.00,224.00L 256.00,224.00L 256.00,224.00L 256.00,224.00L 256.00,224.00L 256.00,224.00
	L 256.00,224.00L 256.00,224.00L 256.00,224.00L 256.00,224.00L 256.00,224.00L 256.00,224.00L 256.00,224.00L 256.00,224.00L 256.00,224.00L 256.00,224.00L 256.00,224.00L 256.00,224.00L 256.00,224.00L 256.00,224.00L 256.00,224.00L 256.00,224.00L 256.00,224.00L 256.00,224.00L 256.00,224.00L 256.00,224.00L 256.00,224.00z
	" />
<glyph unicode="&#x3d;" d="M 141.387,136.928L 141.387,136.928c-37.792,17.824-79.712,13.344-102.592-13.888c-21.781-25.984-20.192-65.376, 0.789-98.549L 99.84,96.32
	l 57.504-48.331l-60.277-71.691c 36.309-14.987, 75.381-9.664, 97.152,16.288c 22.901,27.296, 20.00,69.333-4.085,103.424l 180.501,215.125
	c 37.76-17.781, 79.669-13.376, 102.549,13.888c 21.824,25.952, 20.203,65.376-0.789,98.528l-60.256-71.84l-57.536,48.256l 60.277,71.797
	c-36.331,14.976-75.381,9.696-97.141-16.299c-22.944-27.328-20.032-69.333, 4.053-103.467L 141.387,136.928" />
<glyph unicode="&#x31;" d="M 345.675,283.061L 345.675,328.853 l-30.56,2.229c-1.472,8.363-3.637,16.491-6.432,24.299l 25.312,17.195l-22.912,39.627l-27.573-13.344
		c-5.44,6.421-11.381,12.352-17.781,17.76l 13.344,27.605l-39.669,22.88l-17.184-25.312c-7.787,2.827-15.936,4.992-24.288,6.453l-2.24,30.581
		l-45.76,0.00 l-2.24-30.581c-8.352-1.472-16.48-3.637-24.288-6.464L 106.261,467.083l-39.648-22.88l 13.344-27.605c-6.421-5.397-12.352-11.328-17.76-17.76
		L 34.603,412.192l-22.88-39.616l 25.312-17.195C 34.187,347.573, 32.032,339.435, 30.581,331.072L0.00,328.832l0.00-45.76 l 30.581-2.24
		c 1.461-8.352, 3.616-16.48, 6.464-24.288L 11.712,239.36l 22.88-39.648l 27.605,13.344c 5.397-6.40, 11.339-12.341, 17.76-17.76L 66.613,167.68l 39.648-22.901
		l 17.184,25.312c 7.808-2.848, 15.936-4.992, 24.299-6.453l 2.24-30.56l 45.781,0.00 l 2.229,30.56c 8.352,1.472, 16.491,3.637, 24.288,6.453l 17.184-25.312
		l 39.648,22.901l-13.312,27.605c 6.40,5.429, 12.341,11.36, 17.739,17.781l 27.573-13.376l 22.933,39.669l-25.312,17.184
		c 2.827,7.808, 4.992,15.936, 6.421,24.288L 345.675,283.061z M 261.141,305.952c0.00-48.757-39.541-88.277-88.288-88.277
		c-48.757,0.00-88.277,39.509-88.277,88.277c0.00,48.736, 39.52,88.288, 88.277,88.288C 221.60,394.24, 261.141,354.688, 261.141,305.952zM 512.00,79.232l0.00,33.589 l-36.224,2.315c-2.368,11.381-6.88,22.005-13.035,31.445l 24.021,27.211l-23.776,23.776l-27.211-24.00
		c-9.44,6.165-20.064,10.688-31.467,13.035l-2.283,36.203l-33.632,0.00 l-2.315-36.203c-11.392-2.347-21.984-6.891-31.467-13.035l-27.20,24.00
		l-23.765-23.776l 24.00-27.211c-6.176-9.44-10.656-20.064-13.056-31.445l-36.181-2.336l-0.021-33.589l 36.203-2.304
		c 2.411-11.403, 6.912-22.037, 13.035-31.456l-23.968-27.264l 23.744-23.744l 27.20,24.00c 9.483-6.165, 20.075-10.656, 31.488-13.024l 2.283-36.203l 33.653,0.00 
		l 2.272,36.203c 11.445,2.368, 22.037,6.912, 31.467,13.024l 27.211-24.00l 23.808,23.744l-24.032,27.264c 6.197,9.419, 10.677,20.043, 13.056,31.456
		L 512.00,79.232z M 385.184,57.12c-21.472,0.00-38.848,17.408-38.848,38.901c0.00,21.472, 17.376,38.859, 38.848,38.859s 38.837-17.397, 38.837-38.859
		C 424.021,74.528, 406.656,57.12, 385.184,57.12z" />
<glyph unicode="&#x29;" d="M 496.437,58.763l-146.56,146.56c 38.176,70.571, 27.584,160.544-32.117,220.149c-72.693,72.715-190.56,72.715-263.264,0.00
		c-72.672-72.704-72.672-190.56,0.00-263.264c 59.648-59.669, 149.589-70.272, 220.16-32.075l 146.571-146.56c 20.736-20.757, 54.432-20.757, 75.179,0.00
		C 517.184,4.341, 517.184,37.995, 496.437,58.763z M 87.424,195.125c-54.496,54.517-54.496,142.912,0.00,197.472c 54.517,54.496, 142.891,54.496, 197.472,0.00
		c 54.475-54.56, 54.475-142.944,0.00-197.472C 230.336,140.544, 141.931,140.544, 87.424,195.125z" />
<glyph unicode="&#x3c;" d="M 389.067,453.653l-61.419,0.00 l0.00-137.451 l 61.419,0.00 L 389.067,453.653 z M 437.376,480.00L 76.80,480.00 l0.00-46.56 L 40.203,433.44 L 40.203,480.00 l-8.00,0.00 C 14.421,480.00,0.00,465.611,0.00,447.808L0.00,0.16 
			c0.00-3.52, 0.693-6.923, 1.76-10.144C 6.069-22.741, 17.963-32.00, 32.203-32.00l 447.563,0.00 C 497.568-32.00, 512.00-17.568, 512.00,0.16L 512.00,409.76 
			C 498.037,422.859, 455.467,462.944, 437.376,480.00z M 93.451,478.048l 322.517,0.00 l0.00-166.261 c0.00-18.24-15.232-33.013-34.027-33.013L 127.488,278.784 
			c-18.805,0.00-34.027,14.784-34.027,33.013L 93.451,478.048 z M 432.341-11.467c0.00-2.923-3.243-5.248-7.36-5.248L 88.597-16.715 c-4.053,0.00-7.349,2.336-7.349,5.248
			L 81.248,230.357 c0.00,2.912, 3.296,5.216, 7.349,5.216l 336.384,0.00 c 4.117,0.00, 7.36-2.315, 7.36-5.216L 432.341-11.467 z" />
<glyph unicode="&#x34;" d="M 256.00,224.00L 256.00,224.00L 256.00,224.00L 256.00,224.00L 256.00,224.00L 256.00,224.00L 256.00,224.00L 256.00,224.00L 256.00,224.00L 256.00,224.00L 256.00,224.00L 256.00,224.00L 256.00,224.00L 256.00,224.00L 256.00,224.00L 256.00,224.00L 256.00,224.00L 256.00,224.00L 256.00,224.00
	L 256.00,224.00L 256.00,224.00L 256.00,224.00L 256.00,224.00L 256.00,224.00L 256.00,224.00L 256.00,224.00L 256.00,224.00L 256.00,224.00L 256.00,224.00L 256.00,224.00L 256.00,224.00L 256.00,224.00L 256.00,224.00L 256.00,224.00L 256.00,224.00L 256.00,224.00z M 256.00,224.00L 256.00,224.00L 256.00,224.00
	L 256.00,224.00L 256.00,224.00L 256.00,224.00L 256.00,224.00L 256.00,224.00L 256.00,224.00L 256.00,224.00L 256.00,224.00L 256.00,224.00L 256.00,224.00L 256.00,224.00L 256.00,224.00L 256.00,224.00L 256.00,224.00L 256.00,224.00L 256.00,224.00L 256.00,224.00L 256.00,224.00L 256.00,224.00L 256.00,224.00L 256.00,224.00
	L 256.00,224.00L 256.00,224.00L 256.00,224.00L 256.00,224.00L 256.00,224.00L 256.00,224.00L 256.00,224.00L 256.00,224.00L 256.00,224.00L 256.00,224.00L 256.00,224.00L 256.00,224.00L 256.00,224.00L 256.00,224.00L 256.00,224.00L 256.00,224.00L 256.00,224.00L 256.00,224.00L 256.00,224.00L 256.00,224.00L 256.00,224.00
	L 256.00,224.00L 256.00,224.00L 256.00,224.00L 256.00,224.00L 256.00,224.00L 256.00,224.00L 256.00,224.00L 256.00,224.00L 256.00,224.00L 256.00,224.00L 256.00,224.00L 256.00,224.00L 256.00,224.00L 256.00,224.00L 256.00,224.00L 256.00,224.00L 256.00,224.00L 256.00,224.00L 256.00,224.00L 256.00,224.00L 256.00,224.00z
	M 511.915,101.60l 0.064,37.376c 0.021,2.752-2.112,5.045-4.864,5.28l-121.344,10.069c-5.728,0.448-11.445-1.504-15.659-5.44
	c-4.245-3.904-6.592-9.44-6.56-15.179l 0.256-26.037l-5.568-4.693L 107.20,275.147l 2.368,6.88l 24.331,9.152
	c 5.397,2.016, 9.696,6.229, 11.829,11.573c 2.144,5.365, 1.931,11.36-0.576,16.555L 92.053,428.885C 90.859,431.36, 87.947,432.533, 85.344,431.52
	L 50.528,417.995C 47.456,416.80, 44.651,415.04, 42.336,412.704c-28.885-28.832-39.605-61.333-42.283-95.808c-0.277-3.445, 0.352-6.923, 1.845-10.048
	c 36.971-78.784, 99.573-139.733, 179.499-192.64c 78.176-55.541, 157.536-91.968, 244.341-98.069c 3.488-0.256, 6.944,0.437, 10.069,1.899
	c 31.189,14.944, 57.664,36.651, 74.155,73.963C 511.275,95.029, 511.915,98.325, 511.915,101.60z" />
<glyph unicode="&#x25;" d="M 256.00-32.00L 167.787,66.336L 79.584,164.768L 256.00,164.768L 432.416,164.768L 344.213,66.336 zM 255.979,480.00L 344.213,381.632L 432.416,283.264L 255.979,283.264L 79.584,283.264L 167.787,381.632 z" />
<glyph unicode="&#x26;" d="M0.00,223.979L 98.336,312.213L 196.757,400.416L 196.757,223.979L 196.757,47.584L 98.336,135.787 zM 512.00,224.00L 413.643,135.787L 315.232,47.584L 315.232,224.00L 315.232,400.416L 413.643,312.213 z" />
<glyph unicode="&#x2f;" d="M 470.005,229.771l-70.336,73.451L 399.659,431.979 l-39.136,0.00 l0.00-87.904 l-101.899,106.379L 42.699,229.237L0.00,185.472l 64.672,0.469l0.00-0.469 
	l0.00-187.936 l 121.664,0.00 l0.00,134.848 c0.00,12.949, 3.872,24.939, 10.549,34.944c 11.307,17.024, 30.603,28.203, 52.544,28.203c 22.603,0.00, 42.325-11.936, 53.483-29.728
	c 6.101-9.696, 9.643-21.099, 9.643-33.408l0.00-134.848 l 139.552,0.00 L 452.117,185.483 l0.00,0.448 L 512.00,185.931 L 470.005,229.771z" />
<glyph unicode="&#x33;" d="M 178.005,307.104A78.005,78.005 180.00 1,0 334.005,307.10400000000004A78.005,78.005 180.00 1,0 178.005,307.10400000000004zM 126.56,62.912c0.00,79.509, 35.616,143.008, 85.429,168.576l 44.053-56.96l 41.301,58.325c 51.232-24.448, 88.181-88.971, 88.181-169.92M 38.432,286.069A58.24,58.24 180.00 1,0 154.912,286.06899999999996A58.24,58.24 180.00 1,0 38.432,286.06899999999996zM 160.672,204.053c-21.696-25.867-37.717-60.32-45.056-100.309L0.00,103.744 c0.00,59.328, 26.592,106.752, 63.776,125.835l 32.885-42.528l 30.805,43.541
			C 139.883,224.683, 151.147,215.627, 160.672,204.053zM 357.109,286.069A58.261,58.261 180.00 1,0 473.611,286.06899999999996A58.261,58.261 180.00 1,0 357.109,286.06899999999996zM 512.00,103.744l-115.637,0.00 c-7.392,40.021-23.36,74.475-45.056,100.331c 9.024,10.933, 19.573,19.605, 31.136,25.504l 32.885-42.528l 30.837,43.541
			C 484.437,212.341, 512.00,164.16, 512.00,103.744z" />
<glyph unicode="&#x3f;" d="M 477.696,224.021L 256.00,96.00L 34.304-32.00L 34.304,224.021L 34.304,480.00L 256.00,352.00 z" />
<glyph unicode="&#x3e;" d="M 329.771,414.923C 218.208,471.787, 81.60,427.403, 24.789,315.851c-56.896-111.584-12.491-248.181, 99.093-305.003
		c 1.717-0.896, 3.424-1.685, 5.152-2.528l 39.296,77.056c-1.76,0.811-3.509,1.664-5.216,2.528c-69.024,35.157-96.48,119.669-61.301,188.672
		C 137.024,345.60, 221.472,373.045, 290.464,337.888c 41.525-21.152, 67.968-60.139, 74.869-102.848l 87.20-44.427C 461.387,280.736, 415.339,371.328, 329.771,414.923
		L 329.771,414.923zM 512.00,302.656L 294.88,232.149L 438.688,158.816 	z" />
<glyph unicode="&#x2c;" d="M 493.771,62.40l-110.528,110.528c 28.789,53.184, 20.768,121.045-24.224,165.984c-54.816,54.837-143.659,54.837-198.517,0.00
			c-54.795-54.816-54.795-143.691,0.00-198.517c 44.971-44.992, 112.80-53.013, 166.005-24.224l 110.549-110.517c 15.648-15.659, 41.045-15.659, 56.715,0.00
			C 509.419,21.323, 509.419,46.72, 493.771,62.40z M 185.365,165.216c-41.099,41.088-41.099,107.765,0.00,148.896c 41.088,41.099, 107.744,41.099, 148.896,0.00
			c 41.099-41.12, 41.099-107.787,0.00-148.896C 293.077,124.064, 226.432,124.064, 185.365,165.216zM 390.805,19.68l0.00-13.067 L 45.109,6.613 L 45.109,441.397 l 345.696,0.00 l0.00-107.669 c0.00,0.00, 30.08-42.325, 30.08-79.851s-11.659-75.125-11.659-75.125l 20.203-19.84L 429.419,480.00 L 6.485,480.00 l0.00-512.00 
		l 422.933,0.00 l0.00,13.056 L 390.805,19.68z" />
<glyph unicode="&#x30;" d="M0.00,385.995l0.00-324.00 l 512.00,0.00 L 512.00,385.995 L0.00,385.995 z M 484.373,363.253c0.00,0.00-216.192-189.632-228.373-189.632c-12.171,0.00-230.528,189.632-230.528,189.632L 484.373,363.243 z
	 M 22.752,358.912c0.00,0.00, 135.435-128.416, 136.00-134.912c 0.533-6.496-136.00-135.456-136.00-135.456L 22.752,358.912 z M 25.472,85.291l 149.141,122.987
	c0.00,0.00, 61.077-65.813, 80.32-65.813c 19.296,0.00, 84.789,65.813, 84.789,65.813l 144.661-122.987L 25.472,85.291 z M 488.907,89.088c0.00,0.00-135.456,128.96-134.923,135.456
	c 0.544,6.496, 134.923,134.912, 134.923,134.912L 488.907,89.088 z" />
<glyph unicode="&#x35;" d="M 139.755,363.765A116.235,116.235 180.00 1,0 372.245,363.765A116.235,116.235 180.00 1,0 139.755,363.765zM 98.048,8.096c0.00-4.309, 0.181-17.184, 0.512-17.184L 63.104-9.088 c0.00,130.40, 53.045,217.621, 127.307,255.659l 62.283-80.597
			C 166.987,164.224, 98.048,94.229, 98.048,8.096zM 369.931,12.085c0.00-1.013,0.00-2.048,0.00-3.051c0.00-1.536,0.00-3.051,0.00-4.576l0.00-0.096 c0.00-1.632-0.512-13.44-0.704-13.44L 142.763-9.088 
			c-0.181,0.00-1.024,11.776-1.024,13.44l0.00,0.096 c0.00,1.525, 0.117,3.04, 0.064,4.576c-0.032,1.056, 0.117,2.112, 0.117,3.147
			c0.00,1.013, 0.064,1.963, 0.096,2.955c 0.021,1.045, 0.117,2.08, 0.16,3.083c 0.80,15.488, 4.725,30.165, 11.136,43.403
			c 1.728,3.605, 3.616,7.083, 5.696,10.432c 20.064,32.437, 56.032,54.069, 96.992,54.069c 31.349,0.00, 59.691-12.64, 80.331-33.088
			c 1.365-1.365, 2.709-2.763, 4.053-4.224c 6.08-6.72, 11.424-14.219, 15.776-22.336c 1.344-2.443, 2.603-4.949, 3.733-7.456
			c 1.131-2.507, 2.197-5.088, 3.136-7.723c 0.992-2.624, 1.856-5.28, 2.571-7.968c 0.789-2.72, 1.472-5.493, 2.016-8.277
			c 1.163-5.664, 1.899-11.488, 2.208-17.397c 0.064-0.885, 0.139-1.664, 0.139-2.539C 369.931,14.133, 369.931,13.056, 369.931,12.085zM 413.472-9.088c 0.32,0.00, 0.491,12.896, 0.491,17.184c0.00,86.208-69.088,158.517-154.912,160.149l 58.496,79.211
			c 76.363-36.437, 131.36-126.144, 131.36-256.544L 413.472-9.088 zM 80.288-30.24A52.459,29.312 108.868 1,0 114.229,69.05599999999998A52.459,29.312 108.868 1,0 80.288-30.24000000000001zM 429.568-31.552A52.459,29.312 76.154 1,0 404.469,70.34699999999998A52.459,29.312 76.154 1,0 429.568-31.540999999999997z" />
<glyph unicode="&#x22;" d="M 256.00,2.325L 127.979,223.979L0.00,445.696L 256.00,445.696L 512.00,445.696L 384.00,223.979 z" />
<glyph unicode="&#x66;" d="M 121.056,367.029c-11.243,0.00-20.331,8.672-20.331,19.349L 100.715,460.672 C 100.715,471.36, 109.813,480.00, 121.056,480.00l0.00,0.00
				c 11.20,0.00, 20.32-8.64, 20.32-19.328l0.00-74.283 C 141.376,375.68, 132.267,367.029, 121.056,367.029L 121.056,367.029zM 387.456,367.029c-11.211,0.00-20.299,8.672-20.299,19.349L 367.157,460.672 C 367.147,471.36, 376.245,480.00, 387.456,480.00l0.00,0.00
				c 11.275,0.00, 20.331-8.64, 20.331-19.328l0.00-74.283 C 407.787,375.68, 398.741,367.029, 387.456,367.029L 387.456,367.029zM 254.357,367.029c-11.243,0.00-20.352,8.672-20.352,19.349L 234.005,460.672 C 234.005,471.36, 243.125,480.00, 254.357,480.00l0.00,0.00
				c 11.20,0.00, 20.32-8.64, 20.32-19.328l0.00-74.283 C 274.677,375.68, 265.568,367.029, 254.357,367.029L 254.357,367.029zM 480.299,419.861l-47.861,0.00 l0.00-31.552 c0.00-24.171-20.128-43.744-44.992-43.744c-24.811,0.00-44.939,19.573-44.939,43.744L 342.507,419.861 
			l-43.104,0.00 l0.00-31.552 c0.00-24.171-20.16-43.744-45.013-43.744c-24.80,0.00-44.96,19.573-44.96,43.744L 209.44,419.861 l-43.072,0.00 l0.00-31.552 c0.00-24.171-20.16-43.744-45.013-43.744
			c-24.80,0.00-44.96,19.573-44.96,43.744L 76.395,419.861 L 31.701,419.861 C 14.197,419.861,0.00,406.357,0.00,389.728l0.00-391.563 C0.00-18.485, 14.197-32.00, 31.701-32.00l 448.587,0.00 
			C 497.739-32.00, 512.00-18.485, 512.00-1.835L 512.00,389.728 C 512.00,406.357, 497.739,419.861, 480.299,419.861z M 468.832,23.701c0.00-8.341-7.083-15.04-15.84-15.04L 58.219,8.661 
			c-8.725,0.00-15.829,6.699-15.829,15.04L 42.40,291.851 c0.00,8.299, 7.104,15.04, 15.829,15.04l 394.763,0.00 c 8.757,0.00, 15.84-6.731, 15.84-15.04L 468.832,23.701 zM 141.707,188.992l-51.115,8.757c 4.224,15.488, 12.405,27.36, 24.491,35.563c 12.085,8.288, 29.216,12.405, 51.36,12.405
			c 25.419,0.00, 43.808-4.501, 55.136-13.525c 11.339-9.003, 17.013-20.331, 17.013-33.984c0.00-7.968-2.304-15.232-6.912-21.707
			c-4.608-6.464-11.552-12.171-20.864-17.056c 7.531-1.749, 13.312-3.776, 17.28-6.176c 6.485-3.755, 11.488-8.725, 15.083-14.965
			c 3.573-6.176, 5.397-13.536, 5.397-22.165c0.00-10.752-3.008-21.088-8.917-31.008c-5.931-9.899-14.475-17.504-25.653-22.859
			c-11.168-5.301-25.824-8.021-43.979-8.021c-17.696,0.00-31.701,1.963-41.92,5.984c-10.24,3.947-18.677,9.707-25.248,17.323
			c-6.603,7.637-11.68,17.184-15.211,28.683l 54.069,6.827c 2.165-10.336, 5.44-17.483, 9.92-21.504c 4.48-4.021, 10.144-5.984, 17.067-5.984
			c 7.264,0.00, 13.312,2.496, 18.133,7.616c 4.853,5.013, 7.232,11.723, 7.232,20.192c0.00,8.555-2.315,15.20-6.944,19.904
			c-4.651,4.736-10.987,7.083-18.965,7.083c-4.256,0.00-10.101-1.045-17.536-3.04l 2.784,36.736c 3.008-0.405, 5.344-0.651, 7.04-0.651
			c 7.083,0.00, 13.013,2.176, 17.739,6.453c 4.725,4.341, 7.104,9.376, 7.104,15.296c0.00,5.611-1.749,10.133-5.301,13.525
			c-3.552,3.36-8.427,5.045-14.624,5.045c-6.389,0.00-11.584-1.845-15.552-5.493C 145.877,204.565, 143.136,198.176, 141.707,188.992zM 393.419,245.696l0.00-188.256 l-54.773,0.00 l0.00,123.328 c-8.864-6.368-17.44-11.584-25.707-15.488
			c-8.288-3.947-18.677-7.776-31.136-11.392l0.00,42.176 c 18.432,5.643, 32.693,12.405, 42.88,20.331c 10.208,7.904, 18.219,17.664, 23.957,29.301L 393.419,245.696 z" />
<glyph unicode="&#x38;" d="M 63.861,239.723L 159.637,239.723L 159.637,207.723L 63.861,207.723zM 447.872,239.723L 415.947,239.723L 415.947,271.659L 384.021,271.659L 384.021,239.723L 352.117,239.723L 352.117,207.808L 384.021,207.808L 384.021,175.883L 415.947,175.883L 415.947,207.808L 447.872,207.808 	zM 479.168,367.435l-31.296,0.00 L 447.872,400.00 l-95.765,0.00 l0.00-32.565 L 159.648,367.435 L 159.648,400.00 L 63.861,400.00 l0.00-32.565 L 32.832,367.435 
		C 14.709,367.435,0.00,352.736,0.00,334.613l0.00-253.771 C0.00,62.709, 14.709,48.00, 32.832,48.00l 446.336,0.00 C 497.291,48.00, 512.00,62.709, 512.00,80.832L 512.00,334.613 
		C 512.00,352.736, 497.291,367.435, 479.168,367.435z M 480.704,80.117L 31.936,80.117 L 31.936,337.333 l 448.768,0.00 L 480.704,80.117 zM 256.00,224.00L 256.00,224.00L 256.00,224.00L 256.00,224.00L 256.00,224.00L 256.00,224.00L 256.00,224.00L 256.00,224.00L 256.00,224.00L 256.00,224.00L 256.00,224.00L 256.00,224.00L 256.00,224.00
	L 256.00,224.00L 256.00,224.00L 256.00,224.00L 256.00,224.00L 256.00,224.00L 256.00,224.00L 256.00,224.00L 256.00,224.00L 256.00,224.00L 256.00,224.00L 256.00,224.00L 256.00,224.00L 256.00,224.00L 256.00,224.00L 256.00,224.00L 256.00,224.00L 256.00,224.00L 256.00,224.00L 256.00,224.00L 256.00,224.00L 256.00,224.00
	L 256.00,224.00L 256.00,224.00z M 256.00,224.00L 256.00,224.00L 256.00,224.00L 256.00,224.00L 256.00,224.00L 256.00,224.00L 256.00,224.00L 256.00,224.00L 256.00,224.00L 256.00,224.00L 256.00,224.00L 256.00,224.00L 256.00,224.00L 256.00,224.00L 256.00,224.00L 256.00,224.00L 256.00,224.00L 256.00,224.00
	L 256.00,224.00L 256.00,224.00L 256.00,224.00L 256.00,224.00L 256.00,224.00L 256.00,224.00L 256.00,224.00L 256.00,224.00L 256.00,224.00L 256.00,224.00L 256.00,224.00L 256.00,224.00L 256.00,224.00L 256.00,224.00L 256.00,224.00L 256.00,224.00L 256.00,224.00L 256.00,224.00L 256.00,224.00L 256.00,224.00L 256.00,224.00
	L 256.00,224.00L 256.00,224.00L 256.00,224.00L 256.00,224.00L 256.00,224.00L 256.00,224.00L 256.00,224.00L 256.00,224.00L 256.00,224.00L 256.00,224.00L 256.00,224.00L 256.00,224.00L 256.00,224.00L 256.00,224.00L 256.00,224.00L 256.00,224.00L 256.00,224.00L 256.00,224.00L 256.00,224.00L 256.00,224.00L 256.00,224.00
	L 256.00,224.00L 256.00,224.00L 256.00,224.00L 256.00,224.00L 256.00,224.00L 256.00,224.00z" />
<glyph unicode="&#x40;" d="M 34.304,223.947L 255.968,352.021L 477.696,480.00L 477.664,223.947L 477.664-32.00L 255.968,95.979 z" />
<glyph unicode="&#x23;" d="M 466.005,262.944L 424.00,301.888L 424.00,256.053L 288.00,256.053L 288.00,392.235L 333.771,392.235L 294.901,434.304L 256.00,477.024L 217.109,434.656L 178.208,392.235L 224.00,392.235L 224.00,256.053L 88.00,256.053L 88.00,301.899L 46.005,262.955L 3.328,224.00L 45.664,185.056L 88.00,146.133L 88.00,191.947L 224.00,191.947L 224.00,55.755L 178.208,55.755L 217.109,13.696L 256.00-29.024L 294.901,13.355L 333.771,55.755L 288.00,55.755L 288.00,191.947L 424.00,191.947L 424.00,146.133L 466.005,185.056L 509.355,224.00 		z" />
<glyph unicode="&#x2d;" d="M 121.056,367.04c-11.264,0.00-20.352,8.672-20.352,19.328L 100.704,460.672 C 100.704,471.392, 109.824,480.00, 121.056,480.00l0.00,0.00
				c 11.232,0.00, 20.32-8.608, 20.32-19.328l0.00-74.272 C 141.376,375.68, 132.288,367.04, 121.056,367.04L 121.056,367.04zM 387.488,367.04c-11.232,0.00-20.352,8.672-20.352,19.328L 367.136,460.672 C 367.168,471.392, 376.288,480.00, 387.488,480.00l0.00,0.00
				c 11.264,0.00, 20.32-8.608, 20.32-19.328l0.00-74.272 C 407.808,375.68, 398.752,367.04, 387.488,367.04L 387.488,367.04zM 254.368,367.04c-11.264,0.00-20.384,8.672-20.384,19.328L 233.984,460.672 C 234.016,471.392, 243.168,480.00, 254.368,480.00l0.00,0.00
				C 265.60,480.00, 274.688,471.392, 274.688,460.672l0.00-74.272 C 274.688,375.68, 265.60,367.04, 254.368,367.04L 254.368,367.04zM 480.352,419.872l-47.904,0.00 l0.00-31.552 c0.00-24.16-20.128-43.744-44.928-43.744c-24.832,0.00-44.96,19.552-44.96,43.744L 342.56,419.872 
			L 299.392,419.872 l0.00-31.552 c0.00-24.16-20.128-43.744-44.992-43.744c-24.80,0.00-44.928,19.552-44.928,43.744L 209.472,419.872 L 166.368,419.872 l0.00-31.552 
			c0.00-24.16-20.16-43.744-44.992-43.744c-24.768,0.00-44.96,19.552-44.96,43.744L 76.416,419.872 L 31.68,419.872 C 14.208,419.872,0.00,406.368,0.00,389.76l0.00-391.584 
			C0.00-18.496, 14.208-32.00, 31.68-32.00l 448.608,0.00 C 497.76-32.00, 512.00-18.496, 512.00-1.856L 512.00,389.76 C 512.00,406.368, 497.76,419.872, 480.352,419.872z M 468.832,23.648
			c0.00-8.32-7.104-15.04-15.808-15.04L 58.24,8.608 c-8.736,0.00-15.84,6.72-15.84,15.04L 42.40,291.84 c0.00,8.32, 7.104,15.072, 15.84,15.072l 394.784,0.00 
			c 8.704,0.00, 15.808-6.72, 15.808-15.072L 468.832,23.648 zM 141.728,189.024L 90.592,197.76c 4.224,15.488, 12.416,27.328, 24.512,35.584C 127.168,241.60, 144.32,245.696, 166.432,245.696
			c 25.44,0.00, 43.808-4.448, 55.168-13.504c 11.328-8.992, 16.992-20.32, 16.992-33.984c0.00-7.968-2.272-15.264-6.88-21.696
			c-4.672-6.496-11.584-12.192-20.864-17.056c 7.52-1.792, 13.28-3.808, 17.28-6.208c 6.464-3.744, 11.488-8.704, 15.072-14.944
			c 3.584-6.176, 5.408-13.568, 5.408-22.176c0.00-10.752-3.008-21.056-8.928-30.976c-5.952-9.952-14.464-17.536-25.664-22.88
			c-11.168-5.312-25.824-8.032-43.968-8.032c-17.696,0.00-31.68,1.984-41.92,6.016c-10.24,3.904-18.688,9.664-25.248,17.28
			c-6.624,7.616-11.68,17.184-15.232,28.672l 54.048,6.848c 2.144-10.336, 5.44-17.472, 9.952-21.472c 4.48-4.064, 10.112-6.016, 17.056-6.016
			c 7.264,0.00, 13.312,2.496, 18.112,7.616c 4.864,5.024, 7.264,11.712, 7.264,20.192c0.00,8.576-2.336,15.232-6.976,19.904
			c-4.64,4.704-10.976,7.136-18.976,7.136c-4.256,0.00-10.048-1.088-17.536-3.104L 153.408,174.08C 156.448,173.728, 158.752,173.44, 160.448,173.44
			c 7.136,0.00, 13.024,2.208, 17.76,6.432C 182.944,184.256, 185.312,189.248, 185.312,195.20c0.00,5.60-1.76,10.144-5.312,13.504
			C 176.448,212.064, 171.552,213.76, 165.376,213.76c-6.368,0.00-11.552-1.856-15.52-5.472C 145.888,204.576, 143.168,198.208, 141.728,189.024zM 393.408,245.696l0.00-188.256 l-54.752,0.00 L 338.656,180.736 c-8.832-6.336-17.408-11.52-25.728-15.424
			c-8.288-4.00-18.624-7.808-31.136-11.392L 281.792,196.064 c 18.432,5.664, 32.672,12.416, 42.88,20.352c 10.208,7.904, 18.208,17.664, 23.968,29.28L 393.408,245.696 z" />
<glyph unicode="&#x24;" d="M 121.056,367.04c-11.264,0.00-20.352,8.672-20.352,19.328L 100.704,460.672 C 100.704,471.392, 109.824,480.00, 121.056,480.00l0.00,0.00
				c 11.232,0.00, 20.32-8.608, 20.32-19.328l0.00-74.272 C 141.376,375.68, 132.288,367.04, 121.056,367.04L 121.056,367.04zM 387.488,367.04c-11.232,0.00-20.352,8.672-20.352,19.328L 367.136,460.672 C 367.168,471.392, 376.288,480.00, 387.488,480.00l0.00,0.00
				c 11.264,0.00, 20.32-8.608, 20.32-19.328l0.00-74.272 C 407.808,375.68, 398.752,367.04, 387.488,367.04L 387.488,367.04zM 254.368,367.04c-11.264,0.00-20.384,8.672-20.384,19.328L 233.984,460.672 C 234.016,471.392, 243.168,480.00, 254.368,480.00l0.00,0.00
				C 265.60,480.00, 274.688,471.392, 274.688,460.672l0.00-74.272 C 274.688,375.68, 265.60,367.04, 254.368,367.04L 254.368,367.04zM 480.352,419.872l-47.904,0.00 l0.00-31.552 c0.00-24.16-20.128-43.744-44.928-43.744c-24.832,0.00-44.96,19.552-44.96,43.744L 342.56,419.872 
			L 299.392,419.872 l0.00-31.552 c0.00-24.16-20.128-43.744-44.992-43.744c-24.80,0.00-44.928,19.552-44.928,43.744L 209.472,419.872 L 166.368,419.872 l0.00-31.552 
			c0.00-24.16-20.16-43.744-44.992-43.744c-24.768,0.00-44.96,19.552-44.96,43.744L 76.416,419.872 L 31.68,419.872 C 14.208,419.872,0.00,406.368,0.00,389.76l0.00-391.584 
			C0.00-18.496, 14.208-32.00, 31.68-32.00l 448.608,0.00 C 497.76-32.00, 512.00-18.496, 512.00-1.856L 512.00,389.76 C 512.00,406.368, 497.76,419.872, 480.352,419.872z M 468.832,23.648
			c0.00-8.32-7.104-15.04-15.808-15.04L 58.24,8.608 c-8.736,0.00-15.84,6.72-15.84,15.04L 42.40,291.84 c0.00,8.32, 7.104,15.072, 15.84,15.072l 394.784,0.00 
			c 8.704,0.00, 15.808-6.72, 15.808-15.072L 468.832,23.648 zM 141.728,189.024L 90.592,197.76c 4.224,15.488, 12.416,27.328, 24.512,35.584C 127.168,241.60, 144.32,245.696, 166.432,245.696
			c 25.44,0.00, 43.808-4.448, 55.168-13.504c 11.328-8.992, 16.992-20.32, 16.992-33.984c0.00-7.968-2.272-15.264-6.88-21.696
			c-4.672-6.496-11.584-12.192-20.864-17.056c 7.52-1.792, 13.28-3.808, 17.28-6.208c 6.464-3.744, 11.488-8.704, 15.072-14.944
			c 3.584-6.176, 5.408-13.568, 5.408-22.176c0.00-10.752-3.008-21.056-8.928-30.976c-5.952-9.952-14.464-17.536-25.664-22.88
			c-11.168-5.312-25.824-8.032-43.968-8.032c-17.696,0.00-31.68,1.984-41.92,6.016c-10.24,3.904-18.688,9.664-25.248,17.28
			c-6.624,7.616-11.68,17.184-15.232,28.672l 54.048,6.848c 2.144-10.336, 5.44-17.472, 9.952-21.472c 4.48-4.064, 10.112-6.016, 17.056-6.016
			c 7.264,0.00, 13.312,2.496, 18.112,7.616c 4.864,5.024, 7.264,11.712, 7.264,20.192c0.00,8.576-2.336,15.232-6.976,19.904
			c-4.64,4.704-10.976,7.136-18.976,7.136c-4.256,0.00-10.048-1.088-17.536-3.104L 153.408,174.08C 156.448,173.728, 158.752,173.44, 160.448,173.44
			c 7.136,0.00, 13.024,2.208, 17.76,6.432C 182.944,184.256, 185.312,189.248, 185.312,195.20c0.00,5.60-1.76,10.144-5.312,13.504
			C 176.448,212.064, 171.552,213.76, 165.376,213.76c-6.368,0.00-11.552-1.856-15.52-5.472C 145.888,204.576, 143.168,198.208, 141.728,189.024zM 393.408,245.696l0.00-188.256 l-54.752,0.00 L 338.656,180.736 c-8.832-6.336-17.408-11.52-25.728-15.424
			c-8.288-4.00-18.624-7.808-31.136-11.392L 281.792,196.064 c 18.432,5.664, 32.672,12.416, 42.88,20.352c 10.208,7.904, 18.208,17.664, 23.968,29.28L 393.408,245.696 z" />
<glyph unicode="&#x36;" d="M 496.416,58.816l-146.528,146.56c 38.112,70.528, 27.52,160.48-32.128,220.096c-72.672,72.704-190.528,72.704-263.232,0.00
			c-72.672-72.672-72.672-190.528,0.00-263.264c 59.616-59.648, 149.568-70.24, 220.128-32.064l 146.528-146.592c 20.80-20.736, 54.40-20.736, 75.20,0.00
			C 517.184,4.352, 517.184,37.984, 496.416,58.816z M 87.424,195.136c-54.528,54.528-54.528,142.912,0.00,197.472c 54.528,54.496, 142.88,54.496, 197.472,0.00
			c 54.464-54.56, 54.464-142.944,0.00-197.472C 230.304,140.576, 141.952,140.576, 87.424,195.136zM 92.096,312.288L 277.376,312.288L 277.376,276.416L 92.096,276.416zM 166.784,387.008L 202.688,387.008L 202.688,201.696L 166.784,201.696z" />
<glyph unicode="&#x39;" d="M 216.80,316.608l 25.888,0.00 l 75.424,0.00 l 35.392-36.832l 3.232-3.392l 4.576,0.00 l 44.896,0.00 l0.00-21.792 l0.00-11.232 l 10.976,0.00 l 35.68,0.00 l 10.976,0.00 L 463.84,254.592 L 463.84,276.128 
	l 26.24,0.00 l0.00-159.648 L 462.40,116.48 l-0.032,14.016l-0.032,11.264l-10.912,0.00 L 415.36,141.76 l-4.544,0.00 l-3.20-3.296l-50.624-51.936L 154.016,86.528 l-46.432,47.68l-3.20,3.264L 99.808,137.472 
	l-30.912-0.032L 68.896,263.68 l 39.968,0.032L 115.20,263.712 l 3.168,5.568L 144.96,316.64L 216.80,316.608L 216.80,316.608z M 242.688,339.008L 242.688,355.904 l 75.872,0.00 
	c 4.80,0.00, 8.736,2.528, 8.736,5.632L 327.296,378.40 C 327.328,381.504, 323.36,384.00, 318.56,384.00L 140.928,384.00 C 136.096,384.032, 132.16,381.504, 132.16,378.40l0.00-16.832 
	c0.00-3.104, 3.968-5.632, 8.768-5.632l 75.872,0.00 l0.00-16.928 L 138.624,339.008 L 132.352,339.008 L 129.184,333.376L 102.592,286.048L 57.952,286.016L 47.008,286.016 l0.00-11.20 l0.00-61.056 L 27.36,213.76 L 27.36,291.68 
	c0.00,4.96-2.464,9.024-5.472,9.024L 5.472,300.704 C 2.464,300.672,0.00,296.64,0.00,291.68l0.00-182.336 c0.00-4.928, 2.464-8.96, 5.472-8.96l 16.416,0.00 
	c 3.04,0.00, 5.504,4.032, 5.504,8.96L 27.392,187.264 l 19.584,0.00 l0.00-61.024 l0.00-11.264 l 10.976,0.032l 37.28,0.00 l 46.528-47.712L 144.96,64.00l 4.544,0.00 l 212.032,0.00 l 4.544,0.00 l 3.232,3.296
	l 50.624,51.968l 20.64,0.00 l 0.032-14.016l 0.032-11.264l 10.88,0.00 l 49.568,0.00 L 512.00,93.984 l0.00,11.264 L 512.00,287.36 L 512.00,298.624 l-10.976,0.00 l-48.16,0.00 l-10.944,0.00 L 441.92,287.36 l0.00-21.536 l-13.824,0.00 L 428.096,287.616 L 428.096,298.912 
	l-10.976,0.00 l-51.296,0.00 l-35.36,36.704l-3.20,3.36l-4.64,0.00 L 242.688,338.976 L 242.688,339.008z" />
</font>
</defs>
</svg>
